<svg id="Layer_3" data-name="Layer 3" xmlns="http://www.w3.org/2000/svg" viewBox="0 0 891.22 249.48"><defs><style>.cls-1{fill:#fff;}.cls-2,.cls-3{fill:#fff;}.cls-2{fill-rule:evenodd;}</style></defs><path class="cls-1" d="M43,111.64H63.07c32.22-45,117.67-62.88,120,0h37l.83-11.37-17.68.42a65,65,0,0,0-1.67-10.42l15.3-13.88-4.4-9.82-18.34,7a52.65,52.65,0,0,0-5.66-6.85L198.78,50,190,43.82l-16.5,12.5a63.49,63.49,0,0,0-9.82-3.57l3.63-17.15-12.09-1.43-11.91,16.2a87.15,87.15,0,0,0-10.9.89L128.93,36l-13.34,3.45L109.76,57A122.57,122.57,0,0,0,97.49,62.4L87.31,52,74.62,59.9l1.49,15.84C72.72,78.3,69.5,81,66.4,83.83l-15.24-4.4-10.06,11,8.21,12c-2.26,3-4.34,6-6.31,9.17Z"/><path class="cls-1" d="M139,135.46c5.19-3.51,6.61-16.55-.17-19.59a17.82,17.82,0,0,0-3.1-1l2-12.45a38.27,38.27,0,0,1,12.87,4.17c12.86,7.92,9,29-2.21,37-4.88,3.46-13,5.78-21.67,6.73l-1.31-12c5.83-.36,11.25-1.31,13.63-2.92Zm-22.62-21.08c-4.77.48-8.88,1.37-10.9,2.74-2.44,1.61-4,5-4.35,8.58-1.13,1.43-2.32,3-3.57,4.64-2.8,3.64-5.66,7.39-8.34,11.14-6.85-9.59-2.68-25.79,6.85-32.52,5.06-3.57,13.34-5.89,22.21-6.84Z"/><path class="cls-2" d="M125.6,96.88l6.37.59a1.69,1.69,0,0,1,1.49,1.91l-2.68,17a1.86,1.86,0,0,1-2,1.61l-6.37-.6a1.71,1.71,0,0,1-1.49-2l2.68-17a1.85,1.85,0,0,1,2-1.54Z"/><path class="cls-1" d="M307.93,136.36c6.44-4.29,8.22-20.49-.17-24.24a32.64,32.64,0,0,0-8.94-1.9l1.91-15.31c8.51.72,16.26,2.62,21.5,5.84,16,9.76,11.25,35.9-2.62,45.73-14.71,10.42-52,12.39-67.47,2.8-16-9.83-11.26-35.91,2.68-45.73,4.88-3.52,12.32-6,20.6-7.51l-1.84,15.13a22.23,22.23,0,0,0-7.15,2.5c-6.85,4.64-8,20.54.24,24.24,7.74,3.51,34.54,3,41.26-1.55Z"/><path class="cls-3" d="M196.58,159.52l-6.19-45.61-.06-.36q-18.77,15.9-37.52,31.86l15,4.82c-27.16,57.41-117.61,81.58-127.56,12.33h-4.4c2.79,78.48,110,63.89,146.61-7.56Z"/><path class="cls-1" d="M50.56,173.16H47.17c14.71,42.52,72.11,27.45,100,0h-13.4c-23.22,20.78-69.19,31.62-83.19,0Z"/><path class="cls-1" d="M846.85,155.29H818.57c-7.57-7.8-18.52-17.74-24.9-26.08l-4.34,26.08H770.51l10.78-60.56H800c-1.43,8.34-3.1,16.38-4.71,24.6,10.9-8.52,21.86-16.44,32.93-24.6h27.16c-13.82,9.23-29.12,20.37-43.77,28.53,12.21,9.76,23.82,21.37,35.25,32Z"/><path class="cls-1" d="M711.32,153l-31.2-33.35-6.26,35.61h-17L665.64,105c1.91-10.83,15.07-12.5,19.24-8l31.26,33.28,6.31-35.55h17l-9,50.14C728.71,154.94,716,158,711.32,153Z"/><path class="cls-1" d="M651,155.29H622.65c-7.5-7.74-18.4-17.62-24.89-26.08l-4.35,26.08H574.59l10.78-60.56h18.7c-1.43,8.34-3.1,16.38-4.7,24.6,10.89-8.52,21.85-16.44,32.93-24.6h27.15c-13.81,9.23-29.12,20.37-43.77,28.53,12.21,9.76,23.82,21.37,35.32,32Z"/><path class="cls-1" d="M399.22,155.29H341.88c-10.07,0-9.41-10.12-1.91-15.12,13-8.82,31.44-22.09,43.95-30.07-14.53,1.07-30.67.35-45.14.35l14.77-15.72h55.8c9.94,0,9.41,10,2,15-14.59,10.12-29.24,20.78-44.18,30.31,14.23-.36,32-.36,46-.36Z"/><polygon class="cls-3" points="747.82 107.65 750.86 94.67 769.5 94.67 767.24 103.37 747.82 107.65"/><polygon class="cls-1" points="758.12 155.53 739.37 155.53 746.99 111.76 766.4 107.48 758.12 155.53"/><polygon class="cls-1" points="570.96 139.69 556.13 155.29 497.84 155.29 508.61 94.73 578.64 94.73 563.76 110.45 524.57 110.45 523.26 117.72 571.14 117.72 558.1 131.47 520.82 131.47 519.39 139.69 570.96 139.69"/><polygon class="cls-1" points="502.9 94.73 487.89 110.45 466.33 110.45 458.42 155.29 439.66 155.29 447.52 110.45 419.11 110.45 434.18 94.73 502.9 94.73"/><path class="cls-3" d="M285.48,177.09c2-2.8,4.59-6.31,6.67-9.11,1.55-2.15,5-2.5,5.3.47L299,182.27h-4.82c-.36-3.22-.66-6.49-.83-9.77-1.79,2.68-3.93,5.66-5.78,8.28-1.07,2-4.82,2.68-5.6,0-1-2.74-2-5.54-2.86-8.28-1.37,3.28-2.86,6.55-4.28,9.77h-4.77l6.49-13.82c1.13-2.32,4.41-3.21,5.54-.47,1.13,3,2.44,6.07,3.39,9.11Z"/><path class="cls-3" d="M348.84,182.27l3.64-4.05c2.14,0,4.58,0,6.73.06-1.08-1.91-2.15-4.41-3.28-6.43l-9.23,10.42h-5.78L353.55,168c1.61-2,4.82-2.74,6.25,0l7.33,14.23Z"/><path class="cls-3" d="M383,181.67,374.81,173l-1.61,9.23h-4.41l2.27-13c.47-2.56,3.27-4,5-2.09l8.16,8.64,1.6-9.23h4.41l-2.32,13c-.42,2.5-3.16,4.11-4.94,2.08Z"/><path class="cls-3" d="M418.16,182.27h-7.32c-2-2-4.59-4.65-6.5-6.79l-1.13,6.79h-4.88l2.8-15.72H406l-1.25,6.37c2.8-2.2,5.66-4.23,8.58-6.37h7c-3.57,2.38-7.68,5.12-11.37,7.38,3.16,2.74,6.19,5.6,9.17,8.34Z"/><path class="cls-3" d="M443.11,177.09c2-2.8,4.59-6.31,6.67-9.11,1.49-2.15,4.94-2.5,5.24.47l1.61,13.82h-4.88c-.3-3.22-.66-6.49-.84-9.77-1.78,2.68-3.93,5.66-5.77,8.28-1,2-4.83,2.68-5.6,0-1-2.74-2-5.54-2.86-8.28-1.31,3.28-2.8,6.55-4.23,9.77h-4.82l6.49-13.82c1.19-2.32,4.47-3.21,5.54-.47,1.19,3,2.44,6.07,3.45,9.11Z"/><path class="cls-3" d="M501.05,182.27l3.63-4.05c2.15,0,4.65,0,6.73.06-1-1.91-2.14-4.41-3.27-6.43l-9.23,10.42h-5.72L505.76,168c1.6-2,4.82-2.74,6.25,0l7.32,14.23Z"/><path class="cls-3" d="M563.1,177.09c1.91-2.8,4.53-6.31,6.61-9.11,1.55-2.15,5-2.5,5.3.47l1.55,13.82h-4.82c-.3-3.22-.66-6.49-.84-9.77-1.78,2.68-3.93,5.66-5.77,8.28-1.08,2-4.83,2.68-5.6,0-.95-2.74-2-5.54-2.86-8.28-1.31,3.28-2.8,6.55-4.29,9.77h-4.76l6.49-13.82c1.13-2.32,4.47-3.21,5.54-.47,1.13,3,2.44,6.07,3.45,9.11Z"/><path class="cls-3" d="M585,182.27l3.69-4.05c2.08,0,4.58,0,6.73.06-1.08-1.91-2.15-4.41-3.34-6.43l-9.17,10.42h-5.77L589.72,168c1.61-2,4.82-2.74,6.31,0l7.27,14.23Z"/><path class="cls-3" d="M624.91,182.27h-7.38c-2-2-4.53-4.65-6.43-6.79L610,182.27h-4.89l2.8-15.72h4.83c-.36,2.14-.78,4.23-1.2,6.37,2.8-2.2,5.66-4.23,8.52-6.37h7.09c-3.58,2.38-7.69,5.12-11.38,7.38,3.1,2.74,6.2,5.6,9.17,8.34Z"/><path class="cls-3" d="M648.55,181.67,640.46,173l-1.61,9.23h-4.47l2.32-13c.42-2.56,3.28-4,5-2.09l8.09,8.64,1.67-9.23h4.41l-2.32,13c-.48,2.5-3.16,4.11-5,2.08Z"/><path class="cls-3" d="M662,182.27l3.69-4.05c2.09,0,4.59,0,6.73.06-1.07-1.91-2.14-4.41-3.33-6.43l-9.17,10.42h-5.78L666.72,168c1.54-2,4.76-2.74,6.25,0l7.26,14.23Z"/><path class="cls-3" d="M711.14,173.75c2.68,1.91,1.25,7.09-2.86,8.1-2.92.72-13.46.18-18.16.42l3.81-4.05h11.91c2.44,0,2.56-2.26.42-2.26h-8.58c-7.32,0-6.25-7.8-1-9,2.26-.48,13.1-.42,17.15-.42L710,170.66h-11c-2.44,0-2.56,2-.36,2.14,2.86.18,10.54-.48,12.45.95Z"/><path class="cls-3" d="M719.12,182.27l3.69-4.05c2.09,0,4.59,0,6.73.06-1.07-1.91-2.14-4.41-3.33-6.43L717,182.27h-5.78L723.88,168c1.55-2,4.77-2.74,6.26,0l7.26,14.23Z"/><path class="cls-3" d="M753.24,181.67l-8.1-8.63-1.61,9.23h-4.4l2.26-13c.48-2.56,3.28-4,5-2.09l8.1,8.64,1.67-9.23h4.41l-2.33,13c-.47,2.5-3.15,4.11-5,2.08Z"/><path class="cls-3" d="M766.64,182.27l3.69-4.05c2.09,0,4.59,0,6.73.06-1.07-1.91-2.14-4.41-3.27-6.43l-9.23,10.42h-5.78L771.4,168c1.55-2,4.77-2.74,6.26,0L785,182.27Z"/><path class="cls-3" d="M806.42,166.55l-11.2,10.54-.89,5.18h-4.88l.89-5.18-7.74-10.54h6.25c1.43,2,3.46,4.64,4.71,6.85,2.26-2.27,4.46-4.59,6.72-6.85Z"/><path class="cls-3" d="M340.57,182.27h-7.39c-1.9-2-4.52-4.65-6.43-6.79l-1.13,6.79h-4.88l2.8-15.72h4.82c-.36,2.14-.77,4.23-1.19,6.37,2.8-2.2,5.66-4.23,8.57-6.37h7c-3.57,2.38-7.68,5.12-11.37,7.38,3.15,2.74,6.19,5.6,9.17,8.34Z"/><path class="cls-3" d="M809.4,163.63a1.41,1.41,0,0,1,.59-1.25,2.19,2.19,0,0,1,1.37-.42,1.43,1.43,0,0,1,1.07.3,1.11,1.11,0,0,1,.42,1,1.41,1.41,0,0,1-.6,1.25,2.06,2.06,0,0,1-1.37.42,1.44,1.44,0,0,1-1.07-.3,1.09,1.09,0,0,1-.41-1Z"/><polygon class="cls-3" points="810.23 182.27 805.35 182.27 808.14 166.55 813.03 166.55 810.23 182.27"/><path class="cls-3" d="M630.57,163.63a1.57,1.57,0,0,1,.6-1.25,2.34,2.34,0,0,1,1.43-.42,1.63,1.63,0,0,1,1.07.3,1.13,1.13,0,0,1,.41,1,1.4,1.4,0,0,1-.59,1.25,2.36,2.36,0,0,1-1.43.42,1.61,1.61,0,0,1-1.07-.3,1.28,1.28,0,0,1-.42-1Z"/><polygon class="cls-3" points="631.46 182.27 626.58 182.27 629.38 166.55 634.2 166.55 631.46 182.27"/><polygon class="cls-3" points="538.87 178.22 535 182.27 521.06 182.27 523.86 166.55 528.74 166.55 526.66 178.22 538.87 178.22"/><polygon class="cls-3" points="500.69 166.55 496.76 170.66 491.17 170.66 489.08 182.27 484.26 182.27 486.28 170.66 478.9 170.66 482.77 166.55 500.69 166.55"/><polygon class="cls-3" points="477.41 178.22 473.54 182.27 458.42 182.27 461.21 166.55 479.38 166.55 475.5 170.66 465.32 170.66 464.96 172.5 477.41 172.5 474.08 176.08 464.37 176.08 464.01 178.22 477.41 178.22"/><path class="cls-3" d="M394.46,163.63a1.43,1.43,0,0,1,.59-1.25,2.2,2.2,0,0,1,1.37-.42,1.46,1.46,0,0,1,1.08.3,1.13,1.13,0,0,1,.41,1,1.42,1.42,0,0,1-.59,1.25,2.2,2.2,0,0,1-1.37.42,1.42,1.42,0,0,1-1.07-.3,1.1,1.1,0,0,1-.42-1Z"/><polygon class="cls-3" points="395.29 182.27 390.41 182.27 393.21 166.55 398.09 166.55 395.29 182.27"/><polygon class="cls-3" points="319.79 178.22 315.91 182.27 300.79 182.27 303.59 166.55 321.81 166.55 317.88 170.66 307.7 170.66 307.4 172.5 319.85 172.5 316.45 176.08 306.74 176.08 306.39 178.22 319.79 178.22"/><path class="cls-3" d="M87,151.36c5.18-8.45,12.8-17.74,18.64-25.66,4.34-6,13.93-7,14.83,1.43l4.34,38.7H111.19c-.9-9-2.09-18.4-2.27-27.45-4.76,7.74-11,15.9-16.25,23.23-4.17,5.83-12.87,7.86-15.67,0s-5.65-15.37-8-23.23c-3.75,9.23-7.92,18.34-12,27.45H43.66l18.22-38.7c3.21-6.61,12.44-9.11,15.48-1.43,3.22,8.39,6.85,17.09,9.59,25.66Z"/><path class="cls-2" d="M284.35,85.56l8.28.18a2.12,2.12,0,0,1,2.08,2.32l-2.5,29.54a2.5,2.5,0,0,1-2.44,2.26l-8.27-.18a2.13,2.13,0,0,1-2.09-2.32l2.44-29.54a2.56,2.56,0,0,1,2.5-2.26Z"/></svg>